<svg xmlns="http://www.w3.org/2000/svg" width="20px" height="20px" version="1.1" viewBox="0 0 512 512.00003" >
<g id="surface1">
<path d="M 463.199219 48.800781 C 431.726562 17.328125 389.835938 0 345.242188 0 C 300.648438 0 258.769531 17.339844 227.296875 48.8125 C 195.824219 80.273438 178.496094 122.164062 178.496094 166.757812 C 178.496094 181.871094 180.820312 198.007812 185.589844 215.910156 L 5.320312 396.175781 C 1.882812 399.601562 0 404.171875 0 409.027344 L 0 493.820312 C 0 503.847656 8.152344 512 18.171875 512 L 101.117188 512 C 111.132812 512 119.296875 503.847656 119.296875 493.820312 L 119.296875 458.449219 L 154.667969 458.449219 C 164.695312 458.449219 172.847656 450.296875 172.847656 440.269531 L 172.847656 404.902344 L 210.058594 404.902344 C 214.917969 404.902344 219.472656 403.007812 222.921875 399.574219 L 295.921875 326.5625 C 312.296875 331.167969 328.855469 333.503906 345.242188 333.503906 C 389.828125 333.503906 431.714844 316.164062 463.1875 284.703125 C 494.660156 253.230469 511.988281 211.339844 511.988281 166.757812 C 511.988281 122.152344 494.660156 80.261719 463.199219 48.800781 Z M 345.332031 225.503906 C 311.949219 225.503906 284.792969 198.339844 284.792969 164.964844 C 284.792969 131.578125 311.949219 104.414062 345.332031 104.414062 C 378.71875 104.414062 405.875 131.578125 405.875 164.964844 C 405.875 198.339844 378.71875 225.503906 345.332031 225.503906 Z M 345.332031 225.503906 " style=" stroke:none;fill-rule:nonzero;fill:rgb(0%,0%,0%);fill-opacity:1;" />
</g>
</svg>